<svg xmlns="http://www.w3.org/2000/svg" xmlns:xlink="http://www.w3.org/1999/xlink" width="512" zoomAndPan="magnify" viewBox="0 0 384 383.999986" height="512" preserveAspectRatio="xMidYMid meet" version="1.0"><defs><g/><clipPath id="2b76b7f875"><rect x="0" width="74" y="0" height="130"/></clipPath><clipPath id="144e49b8e8"><rect x="0" width="91" y="0" height="144"/></clipPath><clipPath id="6dfa30fa95"><rect x="0" width="88" y="0" height="149"/></clipPath><clipPath id="51ef425bd7"><rect x="0" width="71" y="0" height="143"/></clipPath><clipPath id="57aa211475"><rect x="0" width="77" y="0" height="140"/></clipPath><clipPath id="630aedb82c"><path d="M 0 30 L 82 30 L 82 113 L 0 113 Z M 0 30 " clip-rule="nonzero"/></clipPath><clipPath id="dfdade534a"><rect x="0" width="84" y="0" height="142"/></clipPath><clipPath id="a9093d9821"><path d="M 0.160156 27 L 75 27 L 75 114 L 0.160156 114 Z M 0.160156 27 " clip-rule="nonzero"/></clipPath><clipPath id="bcbba560fd"><rect x="0" width="79" y="0" height="144"/></clipPath><clipPath id="2cd51b9f58"><rect x="0" width="162" y="0" height="149"/></clipPath><clipPath id="2c4145bc4e"><path d="M 275.707031 78.582031 L 316.957031 78.582031 L 316.957031 119.082031 L 275.707031 119.082031 Z M 275.707031 78.582031 " clip-rule="nonzero"/></clipPath><clipPath id="1d50157a30"><path d="M 47.734375 196.667969 L 103.984375 196.667969 L 103.984375 252.167969 L 47.734375 252.167969 Z M 47.734375 196.667969 " clip-rule="nonzero"/></clipPath></defs><g transform="matrix(1, 0, 0, 1, 310, 81)"><g clip-path="url(#2b76b7f875)"><g fill="#ffcb65" fill-opacity="1"><g transform="translate(0.173615, 102.973924)"><g><path d="M 7.140625 -69.90625 C 7.890625 -70.226562 8.691406 -70.503906 9.546875 -70.734375 C 10.390625 -70.929688 11.222656 -71.175781 12.046875 -71.46875 C 17.390625 -73.257812 23.847656 -74.695312 31.421875 -75.78125 C 38.960938 -76.820312 45.734375 -76.914062 51.734375 -76.0625 C 53.273438 -75.832031 54.875 -75.472656 56.53125 -74.984375 C 58.195312 -74.460938 59.519531 -73.617188 60.5 -72.453125 C 61.582031 -71.078125 62.445312 -68.171875 63.09375 -63.734375 C 63.71875 -59.265625 62.507812 -56.914062 59.46875 -56.6875 C 58.625 -56.625 57.757812 -56.671875 56.875 -56.828125 C 56 -56.992188 55.171875 -57.140625 54.390625 -57.265625 C 48.773438 -58.148438 43.550781 -58.507812 38.71875 -58.34375 C 33.882812 -58.15625 28.910156 -57.601562 23.796875 -56.6875 C 23.722656 -52.570312 23.832031 -48.640625 24.125 -44.890625 C 28.46875 -45.410156 32.628906 -45.867188 36.609375 -46.265625 C 40.597656 -46.648438 43.34375 -46.828125 44.84375 -46.796875 C 47.875 -46.734375 49.390625 -44.789062 49.390625 -40.96875 C 49.359375 -37.15625 48.898438 -34.660156 48.015625 -33.484375 C 46.941406 -32.015625 44.171875 -30.851562 39.703125 -30 C 35.234375 -29.15625 30.757812 -28.554688 26.28125 -28.203125 C 26.875 -25.066406 27.644531 -21.945312 28.59375 -18.84375 C 29.34375 -18.875 30.1875 -18.941406 31.125 -19.046875 C 32.039062 -19.109375 33.101562 -19.1875 34.3125 -19.28125 C 38.945312 -19.644531 43.5 -20.21875 47.96875 -21 C 52.40625 -21.75 56.519531 -22.710938 60.3125 -23.890625 C 60.695312 -23.984375 61.101562 -24.113281 61.53125 -24.28125 C 61.925781 -24.445312 62.332031 -24.59375 62.75 -24.71875 C 63.695312 -24.976562 64.53125 -25.140625 65.25 -25.203125 C 66.78125 -25.304688 67.890625 -24.703125 68.578125 -23.390625 C 69.265625 -22.085938 69.691406 -20.554688 69.859375 -18.796875 C 70.179688 -14.816406 69.753906 -11.816406 68.578125 -9.796875 C 67.921875 -8.648438 66.75 -7.617188 65.0625 -6.703125 C 63.945312 -6.117188 62.410156 -5.53125 60.453125 -4.9375 C 57.515625 -4.0625 53.796875 -3.328125 49.296875 -2.734375 C 44.785156 -2.148438 40.132812 -1.742188 35.34375 -1.515625 C 32.4375 -1.316406 28.664062 -1.085938 24.03125 -0.828125 C 19.363281 -0.566406 15.859375 -0.910156 13.515625 -1.859375 C 11.785156 -2.546875 10.429688 -3.6875 9.453125 -5.28125 C 8.472656 -6.851562 7.6875 -8.40625 7.09375 -9.9375 C 5.914062 -12.84375 4.90625 -16.597656 4.0625 -21.203125 C 3.175781 -25.796875 2.507812 -30.554688 2.0625 -35.484375 C 1.601562 -40.378906 1.375 -45.128906 1.375 -49.734375 C 1.375 -54.304688 1.664062 -58.039062 2.25 -60.9375 C 2.769531 -63.550781 3.472656 -65.640625 4.359375 -67.203125 C 5.046875 -68.441406 5.972656 -69.34375 7.140625 -69.90625 Z M 7.140625 -69.90625 "/></g></g></g></g></g><g transform="matrix(1, 0, 0, 1, 245, 76)"><g clip-path="url(#144e49b8e8)"><g fill="#9d71e4" fill-opacity="1"><g transform="translate(2.369822, 114.760248)"><g><path d="M 64.9375 -81.453125 C 68.414062 -80.648438 71.164062 -79.65625 73.1875 -78.46875 C 75.582031 -77.007812 76.78125 -75.285156 76.78125 -73.296875 C 76.78125 -70.984375 76.582031 -68.664062 76.1875 -66.34375 C 75.78125 -64.03125 75 -61.859375 73.84375 -59.828125 C 72.175781 -56.890625 70.5625 -55.421875 69 -55.421875 C 67.59375 -55.421875 66.21875 -55.65625 64.875 -56.125 C 63.5 -56.601562 62.160156 -57.054688 60.859375 -57.484375 C 58.140625 -58.390625 54.441406 -58.769531 49.765625 -58.625 C 45.097656 -58.445312 40.71875 -57.4375 36.625 -55.59375 C 32.488281 -53.738281 29.316406 -50.875 27.109375 -47 C 24.867188 -43.125 24.867188 -37.941406 27.109375 -31.453125 C 28.742188 -26.710938 32.078125 -23.3125 37.109375 -21.25 C 42.148438 -19.144531 47.273438 -18.347656 52.484375 -18.859375 C 50.203125 -20.117188 48.679688 -21.003906 47.921875 -21.515625 C 46.910156 -22.203125 46.113281 -22.960938 45.53125 -23.796875 C 45.019531 -24.453125 44.695312 -25.234375 44.5625 -26.140625 C 44.15625 -28.523438 44.316406 -31.003906 45.046875 -33.578125 C 45.628906 -35.679688 47.566406 -36.476562 50.859375 -35.96875 C 54.148438 -35.457031 57.769531 -34.425781 61.71875 -32.875 C 65.632812 -31.28125 69.367188 -29.539062 72.921875 -27.65625 C 76.472656 -25.738281 78.804688 -24.4375 79.921875 -23.75 C 82.753906 -21.894531 82.503906 -18.921875 79.171875 -14.828125 C 75.796875 -10.734375 73.132812 -7.984375 71.1875 -6.578125 C 69.800781 -5.597656 68.441406 -4.765625 67.109375 -4.078125 C 63.410156 -2.117188 59.695312 -0.976562 55.96875 -0.65625 C 52.238281 -0.320312 48.523438 -0.320312 44.828125 -0.65625 C 39.898438 -1.125 35.171875 -2.265625 30.640625 -4.078125 C 27.054688 -5.484375 23.632812 -7.363281 20.375 -9.71875 C 17.082031 -12.039062 14.1875 -14.90625 11.6875 -18.3125 C 7.050781 -24.539062 3.953125 -31.476562 2.390625 -39.125 C -0.109375 -50.9375 2.75 -60.789062 10.96875 -68.6875 C 15.101562 -72.664062 19.78125 -75.648438 25 -77.640625 C 30.175781 -79.640625 35.191406 -81.035156 40.046875 -81.828125 C 44.097656 -82.484375 48.242188 -82.8125 52.484375 -82.8125 C 56.722656 -82.8125 60.875 -82.359375 64.9375 -81.453125 Z M 64.9375 -81.453125 "/></g></g></g></g></g><g transform="matrix(1, 0, 0, 1, 67, 99)"><g clip-path="url(#6dfa30fa95)"><g fill="#31a768" fill-opacity="1"><g transform="translate(1.55091, 117.915295)"><g><path d="M 4.3125 -49.84375 C 5.757812 -52.75 7.398438 -55.5625 9.234375 -58.28125 C 11.023438 -60.96875 13.113281 -63.488281 15.5 -65.84375 C 16.539062 -66.882812 17.566406 -67.851562 18.578125 -68.75 C 24.984375 -74.488281 32.289062 -78.457031 40.5 -80.65625 C 47.550781 -82.5625 54.320312 -82.582031 60.8125 -80.71875 C 63.9375 -79.820312 67.03125 -78.160156 70.09375 -75.734375 C 73.144531 -73.316406 75.457031 -70.648438 77.03125 -67.734375 C 78.03125 -65.835938 78.773438 -63.804688 79.265625 -61.640625 C 79.710938 -59.484375 80.046875 -57.34375 80.265625 -55.21875 C 80.867188 -47.863281 80.203125 -41.203125 78.265625 -35.234375 C 77.066406 -31.660156 75.332031 -28.175781 73.0625 -24.78125 C 70.75 -21.351562 68.359375 -18.296875 65.890625 -15.609375 C 62.203125 -11.578125 58.007812 -8.179688 53.3125 -5.421875 C 48.570312 -2.660156 43.460938 -1.003906 37.984375 -0.453125 C 32.460938 -0.00390625 27.128906 -0.675781 21.984375 -2.46875 C 18.066406 -3.800781 14.429688 -5.703125 11.078125 -8.171875 C 7.679688 -10.585938 5.070312 -13.703125 3.25 -17.515625 C 1.488281 -21.160156 0.5 -25.445312 0.28125 -30.375 C 0.0195312 -37.5 1.363281 -43.988281 4.3125 -49.84375 Z M 26.171875 -37.921875 C 26.171875 -34.304688 28.207031 -30.5625 32.28125 -26.6875 C 36.300781 -22.800781 40.382812 -21.90625 44.53125 -24 C 47.21875 -25.34375 48.835938 -27.1875 49.390625 -29.53125 C 49.953125 -31.882812 49.84375 -34.347656 49.0625 -36.921875 C 48.125 -39.828125 46.40625 -42.234375 43.90625 -44.140625 C 41.40625 -46.003906 38.851562 -47.101562 36.25 -47.4375 C 33.601562 -47.769531 31.269531 -47.210938 29.25 -45.765625 C 27.195312 -44.265625 26.171875 -41.648438 26.171875 -37.921875 Z M 26.171875 -37.921875 "/></g></g></g></g></g><g transform="matrix(1, 0, 0, 1, 126, 102)"><g clip-path="url(#51ef425bd7)"><g fill="#f93d3a" fill-opacity="1"><g transform="translate(1.078334, 113.332166)"><g><path d="M 12.234375 -5.28125 C 10.765625 -5.53125 9.613281 -5.835938 8.78125 -6.203125 C 7.53125 -6.734375 6.507812 -7.664062 5.71875 -9 C 4.675781 -10.726562 3.832031 -13.046875 3.1875 -15.953125 C 2.351562 -19.148438 1.773438 -23.351562 1.453125 -28.5625 C 1.097656 -33.738281 0.957031 -39.128906 1.03125 -44.734375 C 1.09375 -50.335938 1.394531 -55.78125 1.9375 -61.0625 C 2.476562 -66.34375 3.25 -70.707031 4.25 -74.15625 C 4.71875 -75.882812 5.40625 -77.679688 6.3125 -79.546875 C 7.164062 -81.410156 8.457031 -82.832031 10.1875 -83.8125 C 11.125 -84.3125 12.722656 -84.757812 14.984375 -85.15625 C 17.210938 -85.550781 19.472656 -85.691406 21.765625 -85.578125 C 24.066406 -85.472656 26.097656 -85.046875 27.859375 -84.296875 C 29.585938 -83.503906 30.429688 -82.226562 30.390625 -80.46875 C 30.359375 -79.5 30.179688 -78.507812 29.859375 -77.5 C 29.492188 -76.488281 29.1875 -75.535156 28.9375 -74.640625 C 26.675781 -67.273438 25.222656 -58.921875 24.578125 -49.578125 C 23.929688 -40.234375 23.96875 -31.234375 24.6875 -22.578125 C 29.96875 -21.898438 35.066406 -21.648438 39.984375 -21.828125 C 44.867188 -22.003906 50.113281 -22.847656 55.71875 -24.359375 C 56.507812 -24.578125 57.359375 -24.828125 58.265625 -25.109375 C 59.117188 -25.359375 59.976562 -25.484375 60.84375 -25.484375 C 63.96875 -25.453125 65.367188 -22.882812 65.046875 -17.78125 C 64.722656 -12.675781 64.078125 -9.316406 63.109375 -7.703125 C 62.210938 -6.265625 60.9375 -5.1875 59.28125 -4.46875 C 57.59375 -3.75 55.992188 -3.210938 54.484375 -2.859375 C 48.453125 -1.421875 41.570312 -0.988281 33.84375 -1.5625 C 26.082031 -2.101562 19.414062 -3.179688 13.84375 -4.796875 C 13.5625 -4.867188 13.296875 -4.941406 13.046875 -5.015625 C 12.753906 -5.085938 12.484375 -5.175781 12.234375 -5.28125 Z M 12.234375 -5.28125 "/></g></g></g></g></g><g transform="matrix(1, 0, 0, 1, 164, 95)"><g clip-path="url(#57aa211475)"><g fill="#e8678f" fill-opacity="1"><g transform="translate(8.659976, 112.423243)"><g><path d="M 11.1875 -5.71875 C 9.800781 -5.875 8.703125 -6.09375 7.890625 -6.375 C 6.671875 -6.800781 5.644531 -7.625 4.8125 -8.84375 C 3.726562 -10.382812 2.796875 -12.515625 2.015625 -15.234375 C 1.035156 -18.191406 0.234375 -22.113281 -0.390625 -27 C -1.054688 -31.84375 -1.523438 -36.90625 -1.796875 -42.1875 C -2.078125 -47.46875 -2.128906 -52.617188 -1.953125 -57.640625 C -1.765625 -62.648438 -1.3125 -66.804688 -0.59375 -70.109375 C -0.25 -71.765625 0.285156 -73.503906 1.015625 -75.328125 C 1.710938 -77.128906 2.84375 -78.539062 4.40625 -79.5625 C 5.25 -80.09375 6.726562 -80.613281 8.84375 -81.125 C 10.914062 -81.644531 13.035156 -81.921875 15.203125 -81.953125 C 17.390625 -82.003906 19.328125 -81.722656 21.015625 -81.109375 C 22.703125 -80.484375 23.578125 -79.335938 23.640625 -77.671875 C 23.671875 -76.753906 23.566406 -75.8125 23.328125 -74.84375 C 23.046875 -73.875 22.8125 -72.957031 22.625 -72.09375 C 20.957031 -65.019531 20.113281 -57.0625 20.09375 -48.21875 C 20.050781 -39.375 20.640625 -30.898438 21.859375 -22.796875 C 26.878906 -22.472656 31.703125 -22.550781 36.328125 -23.03125 C 40.910156 -23.5 45.800781 -24.625 51 -26.40625 C 51.71875 -26.644531 52.492188 -26.929688 53.328125 -27.265625 C 54.117188 -27.554688 54.921875 -27.726562 55.734375 -27.78125 C 58.671875 -27.945312 60.15625 -25.613281 60.1875 -20.78125 C 60.195312 -15.957031 59.789062 -12.753906 58.96875 -11.171875 C 58.207031 -9.753906 57.066406 -8.65625 55.546875 -7.875 C 54.015625 -7.101562 52.550781 -6.503906 51.15625 -6.078125 C 45.550781 -4.335938 39.097656 -3.5 31.796875 -3.5625 C 24.441406 -3.59375 18.09375 -4.195312 12.75 -5.375 C 12.476562 -5.414062 12.21875 -5.46875 11.96875 -5.53125 C 11.695312 -5.570312 11.4375 -5.632812 11.1875 -5.71875 Z M 11.1875 -5.71875 "/></g></g></g></g></g><g transform="matrix(1, 0, 0, 1, 0, 94)"><g clip-path="url(#dfdade534a)"><g clip-path="url(#630aedb82c)"><g fill="#3d98d6" fill-opacity="1"><g transform="translate(0.81177, 112.449922)"><g><path d="M 64.1875 -80.53125 C 67.625 -79.738281 70.347656 -78.75 72.359375 -77.5625 C 74.722656 -76.132812 75.90625 -74.4375 75.90625 -72.46875 C 75.90625 -70.175781 75.707031 -67.882812 75.3125 -65.59375 C 74.914062 -63.300781 74.144531 -61.148438 73 -59.140625 C 71.351562 -56.242188 69.757812 -54.796875 68.21875 -54.796875 C 66.820312 -54.796875 65.460938 -55.023438 64.140625 -55.484375 C 62.773438 -55.953125 61.453125 -56.398438 60.171875 -56.828125 C 57.484375 -57.722656 53.828125 -58.101562 49.203125 -57.96875 C 44.585938 -57.78125 40.253906 -56.773438 36.203125 -54.953125 C 32.117188 -53.128906 28.988281 -50.300781 26.8125 -46.46875 C 24.582031 -42.632812 24.582031 -37.515625 26.8125 -31.109375 C 28.414062 -26.410156 31.707031 -23.039062 36.6875 -21 C 41.664062 -18.925781 46.734375 -18.140625 51.890625 -18.640625 C 55.828125 -19.035156 59.960938 -20.554688 64.296875 -23.203125 C 68.628906 -25.859375 72.960938 -24.925781 77.296875 -20.40625 C 79.804688 -17.757812 79.769531 -15.128906 77.1875 -12.515625 C 74.570312 -9.898438 72.300781 -7.894531 70.375 -6.5 C 69.007812 -5.53125 67.664062 -4.707031 66.34375 -4.03125 C 62.6875 -2.09375 59.015625 -0.960938 55.328125 -0.640625 C 51.640625 -0.316406 47.96875 -0.316406 44.3125 -0.640625 C 39.445312 -1.109375 34.773438 -2.238281 30.296875 -4.03125 C 26.753906 -5.425781 23.367188 -7.285156 20.140625 -9.609375 C 16.878906 -11.898438 14.015625 -14.734375 11.546875 -18.109375 C 6.960938 -24.265625 3.898438 -31.117188 2.359375 -38.671875 C -0.109375 -50.347656 2.71875 -60.09375 10.84375 -67.90625 C 14.925781 -71.84375 19.546875 -74.796875 24.703125 -76.765625 C 29.828125 -78.734375 34.789062 -80.113281 39.59375 -80.90625 C 43.601562 -81.539062 47.703125 -81.859375 51.890625 -81.859375 C 56.078125 -81.859375 60.175781 -81.414062 64.1875 -80.53125 Z M 64.1875 -80.53125 "/></g></g></g></g></g></g><g transform="matrix(1, 0, 0, 1, 200, 94)"><g clip-path="url(#bcbba560fd)"><g clip-path="url(#a9093d9821)"><g fill="#3d98d6" fill-opacity="1"><g transform="translate(0.171066, 113.678838)"><g><path d="M 48.03125 -20.421875 C 45.3125 -19.441406 41.5625 -18.609375 36.78125 -17.921875 C 31.96875 -17.234375 27.929688 -16.984375 24.671875 -17.171875 C 23.835938 -13.222656 23.203125 -9.65625 22.765625 -6.46875 C 22.296875 -3.382812 21.242188 -1.570312 19.609375 -1.03125 C 17.941406 -0.488281 15.894531 -0.4375 13.46875 -0.875 C 11.800781 -1.15625 9.972656 -1.675781 7.984375 -2.4375 C 5.953125 -3.164062 4.269531 -4.070312 2.9375 -5.15625 C 1.8125 -6.101562 1.050781 -7.410156 0.65625 -9.078125 C 0.320312 -10.335938 0.140625 -11.675781 0.109375 -13.09375 C 0.0351562 -14.46875 0.0351562 -15.804688 0.109375 -17.109375 C 0.285156 -20.691406 1.007812 -25.253906 2.28125 -30.796875 C 3.550781 -36.335938 5.128906 -42.023438 7.015625 -47.859375 C 8.859375 -53.691406 10.898438 -59.289062 13.140625 -64.65625 C 15.359375 -70.007812 17.515625 -74.316406 19.609375 -77.578125 C 20.660156 -79.242188 21.945312 -80.929688 23.46875 -82.640625 C 24.988281 -84.304688 26.78125 -85.351562 28.84375 -85.78125 C 30.914062 -86.21875 33.648438 -86.164062 37.046875 -85.625 C 40.453125 -85.082031 43.007812 -84.101562 44.71875 -82.6875 C 47.6875 -81.09375 50.78125 -77.507812 54 -71.9375 C 57.1875 -66.351562 60.140625 -60.210938 62.859375 -53.515625 C 65.578125 -46.773438 67.910156 -40.203125 69.859375 -33.796875 C 71.785156 -27.378906 72.960938 -22.578125 73.390625 -19.390625 C 73.828125 -16.203125 73.898438 -13.523438 73.609375 -11.359375 C 73.285156 -9.546875 72.617188 -8.1875 71.609375 -7.28125 C 70.335938 -6.050781 68.742188 -4.984375 66.828125 -4.078125 C 64.898438 -3.171875 63.125 -2.5 61.5 -2.0625 C 59.113281 -1.414062 57.066406 -1.304688 55.359375 -1.734375 C 53.660156 -2.140625 52.484375 -3.84375 51.828125 -6.84375 C 50.847656 -10.863281 49.582031 -15.390625 48.03125 -20.421875 Z M 27.265625 -27.765625 C 32.804688 -27.691406 38.601562 -28.378906 44.65625 -29.828125 C 41.863281 -37.140625 38.710938 -44.113281 35.203125 -50.75 C 32.203125 -43.6875 29.554688 -36.023438 27.265625 -27.765625 Z M 27.265625 -27.765625 "/></g></g></g></g></g></g><g transform="matrix(1, 0, 0, 1, 111, 218)"><g clip-path="url(#2cd51b9f58)"><g fill="#25754a" fill-opacity="1"><g transform="translate(3.4038, 109.171475)"><g><path d="M 2.203125 0.203125 C 1.328125 0.117188 0.925781 -0.328125 1 -1.140625 C 1.070312 -1.867188 1.515625 -2.273438 2.328125 -2.359375 L 3.90625 -2.421875 C 5.46875 -2.503906 6.648438 -2.84375 7.453125 -3.4375 C 8.265625 -4.039062 8.742188 -5.117188 8.890625 -6.671875 L 14.734375 -70.125 C 14.859375 -71.445312 14.738281 -72.382812 14.375 -72.9375 C 14.007812 -73.5 13.320312 -73.863281 12.3125 -74.03125 L 9.78125 -74.59375 C 8.988281 -74.8125 8.625 -75.285156 8.6875 -76.015625 C 8.757812 -76.765625 9.203125 -77.175781 10.015625 -77.25 C 12.117188 -77.507812 13.9375 -77.863281 15.46875 -78.3125 C 17.007812 -78.757812 18.289062 -79.234375 19.3125 -79.734375 C 20.539062 -80.378906 21.453125 -80.671875 22.046875 -80.609375 C 22.867188 -80.535156 23.226562 -79.90625 23.125 -78.71875 L 16.421875 -5.96875 C 16.273438 -4.414062 16.410156 -3.300781 16.828125 -2.625 C 17.242188 -1.957031 18.222656 -1.441406 19.765625 -1.078125 L 22.265625 -0.515625 C 23.078125 -0.285156 23.445312 0.191406 23.375 0.921875 C 23.300781 1.734375 22.816406 2.097656 21.921875 2.015625 Z M 2.203125 0.203125 "/></g></g></g><g fill="#25754a" fill-opacity="1"><g transform="translate(45.747557, 112.776447)"><g><path d="M 13.328125 1.25 C 10.210938 1.1875 7.671875 0.15625 5.703125 -1.84375 C 3.742188 -3.84375 2.789062 -6.472656 2.84375 -9.734375 C 2.90625 -12.921875 3.960938 -15.921875 6.015625 -18.734375 C 8.066406 -21.554688 10.851562 -24.085938 14.375 -26.328125 C 17.90625 -28.566406 21.910156 -30.347656 26.390625 -31.671875 C 27.359375 -31.941406 27.851562 -32.5625 27.875 -33.53125 L 28.0625 -43.625 C 28.125 -47.1875 27.609375 -49.738281 26.515625 -51.28125 C 25.429688 -52.820312 23.925781 -53.609375 22 -53.640625 C 20.144531 -53.679688 18.441406 -52.878906 16.890625 -51.234375 C 15.347656 -49.597656 14.207031 -46.816406 13.46875 -42.890625 C 13.050781 -40.546875 12.222656 -38.84375 10.984375 -37.78125 C 9.742188 -36.726562 8.492188 -36.210938 7.234375 -36.234375 C 5.160156 -36.273438 4.140625 -37.335938 4.171875 -39.421875 C 4.210938 -41.554688 4.863281 -43.671875 6.125 -45.765625 C 7.382812 -47.859375 9.03125 -49.753906 11.0625 -51.453125 C 13.101562 -53.160156 15.316406 -54.507812 17.703125 -55.5 C 20.085938 -56.488281 22.46875 -56.960938 24.84375 -56.921875 C 32.1875 -56.785156 35.78125 -52.457031 35.625 -43.9375 L 35 -9.921875 C 34.945312 -6.804688 35.695312 -5.234375 37.25 -5.203125 C 38.21875 -5.191406 39.117188 -5.828125 39.953125 -7.109375 C 40.785156 -8.390625 41.234375 -10.585938 41.296875 -13.703125 C 41.316406 -14.890625 41.8125 -15.472656 42.78125 -15.453125 C 43.65625 -15.441406 44.082031 -14.804688 44.0625 -13.546875 C 43.957031 -8.140625 42.941406 -4.242188 41.015625 -1.859375 C 39.085938 0.515625 36.9375 1.679688 34.5625 1.640625 C 32.789062 1.597656 31.394531 0.847656 30.375 -0.609375 C 29.363281 -2.078125 28.691406 -3.816406 28.359375 -5.828125 C 28.304688 -6.566406 28 -6.957031 27.4375 -7 C 26.882812 -7.050781 26.34375 -6.710938 25.8125 -5.984375 C 23.976562 -3.566406 22.125 -1.742188 20.25 -0.515625 C 18.375 0.703125 16.066406 1.289062 13.328125 1.25 Z M 16.421875 -3.8125 C 18.347656 -3.769531 20.140625 -4.421875 21.796875 -5.765625 C 23.453125 -7.117188 24.820312 -8.929688 25.90625 -11.203125 C 26.988281 -13.484375 27.554688 -16.066406 27.609375 -18.953125 L 27.75 -27.078125 C 27.78125 -28.484375 27.007812 -28.90625 25.4375 -28.34375 C 20.882812 -26.800781 17.335938 -24.625 14.796875 -21.8125 C 12.265625 -19 10.960938 -15.585938 10.890625 -11.578125 C 10.796875 -6.460938 12.640625 -3.875 16.421875 -3.8125 Z M 16.421875 -3.8125 "/></g></g></g><g fill="#25754a" fill-opacity="1"><g transform="translate(108.816422, 113.185531)"><g><path d="M 22.921875 -0.6875 C 19.890625 -0.457031 16.898438 -1.203125 13.953125 -2.921875 C 12.234375 -3.910156 10.769531 -3.507812 9.5625 -1.71875 C 8.894531 -0.84375 8.382812 -0.265625 8.03125 0.015625 C 7.6875 0.304688 7.328125 0.46875 6.953125 0.5 C 6.140625 0.550781 5.800781 0.0507812 5.9375 -1 C 6.113281 -2.707031 6.175781 -4.898438 6.125 -7.578125 C 6.082031 -10.253906 5.894531 -13.8125 5.5625 -18.25 L 1.640625 -71.484375 C 1.546875 -72.804688 1.273438 -73.695312 0.828125 -74.15625 C 0.390625 -74.613281 -0.351562 -74.875 -1.40625 -74.9375 L -3.75 -75.09375 C -4.570312 -75.1875 -5.007812 -75.601562 -5.0625 -76.34375 C -5.113281 -77.09375 -4.738281 -77.5625 -3.9375 -77.75 C -1.90625 -78.351562 -0.210938 -79 1.140625 -79.6875 C 2.503906 -80.382812 3.644531 -81.066406 4.5625 -81.734375 C 5.695312 -82.566406 6.5625 -83.003906 7.15625 -83.046875 C 7.957031 -83.109375 8.398438 -82.546875 8.484375 -81.359375 L 10.5 -53.96875 C 10.550781 -53.375 10.820312 -53 11.3125 -52.84375 C 11.8125 -52.695312 12.335938 -52.941406 12.890625 -53.578125 C 15.828125 -57.066406 19.179688 -58.945312 22.953125 -59.21875 C 26.347656 -59.46875 29.441406 -58.5625 32.234375 -56.5 C 35.023438 -54.4375 37.320312 -51.46875 39.125 -47.59375 C 40.9375 -43.71875 42.046875 -39.082031 42.453125 -33.6875 C 42.898438 -27.539062 42.335938 -22.03125 40.765625 -17.15625 C 39.191406 -12.289062 36.859375 -8.40625 33.765625 -5.5 C 30.679688 -2.59375 27.066406 -0.988281 22.921875 -0.6875 Z M 22.5 -3.453125 C 26.632812 -3.753906 29.796875 -6.4375 31.984375 -11.5 C 34.179688 -16.5625 34.972656 -23.234375 34.359375 -31.515625 C 33.796875 -39.128906 32.257812 -44.851562 29.75 -48.6875 C 27.238281 -52.519531 23.953125 -54.285156 19.890625 -53.984375 C 17.378906 -53.796875 15.269531 -52.597656 13.5625 -50.390625 C 11.863281 -48.191406 11.148438 -45.242188 11.421875 -41.546875 L 13.484375 -13.59375 C 13.722656 -10.269531 14.675781 -7.703125 16.34375 -5.890625 C 18.007812 -4.078125 20.0625 -3.265625 22.5 -3.453125 Z M 22.5 -3.453125 "/></g></g></g></g></g><g clip-path="url(#2c4145bc4e)"><path fill="#f6d636" d="M 275.746094 99.570312 C 276.164062 99.296875 276.660156 99.230469 277.128906 99.109375 C 278.046875 98.863281 279.003906 98.753906 279.902344 98.4375 C 281.316406 97.945312 282.761719 97.511719 284.113281 96.878906 C 285.621094 96.1875 287.058594 95.378906 288.429688 94.449219 C 289.039062 94.039062 289.613281 93.585938 290.148438 93.085938 C 291.164062 92.125 292.007812 91.03125 292.679688 89.8125 C 293.378906 88.515625 293.792969 87.128906 294.246094 85.75 C 294.761719 84.140625 295.195312 82.503906 295.542969 80.847656 C 295.660156 80.308594 295.699219 79.753906 295.789062 79.207031 C 295.835938 78.992188 295.949219 78.8125 296.121094 78.675781 C 296.242188 78.574219 296.371094 78.648438 296.457031 78.847656 C 296.691406 79.371094 296.882812 79.914062 297.023438 80.46875 C 297.429688 81.925781 297.890625 83.371094 298.414062 84.789062 C 298.824219 85.847656 299.304688 86.871094 299.855469 87.863281 C 300.15625 88.417969 301.976562 91.539062 302.363281 92.011719 C 303.304688 93.199219 304.457031 94.125 305.816406 94.792969 C 306.507812 95.125 307.222656 95.386719 307.964844 95.582031 C 308.957031 95.859375 309.945312 96.214844 310.9375 96.503906 C 312.191406 96.878906 313.46875 97.164062 314.765625 97.355469 C 315.425781 97.46875 316.078125 97.625 316.714844 97.820312 C 316.894531 97.875 316.925781 98.003906 316.808594 98.144531 C 316.710938 98.242188 316.597656 98.308594 316.464844 98.34375 C 316.007812 98.511719 315.539062 98.648438 315.0625 98.753906 C 313.757812 99.101562 312.488281 99.546875 311.25 100.089844 C 309.546875 100.808594 307.96875 101.742188 306.527344 102.898438 C 306.03125 103.296875 305.496094 103.675781 304.976562 104.0625 C 304.210938 104.636719 303.644531 105.386719 303.066406 106.140625 C 300.839844 108.933594 298.40625 117.867188 298.261719 118.597656 C 298.246094 118.675781 298.222656 118.75 298.191406 118.820312 C 298.148438 118.917969 298.113281 119.066406 297.996094 119.066406 C 297.867188 119.039062 297.773438 118.964844 297.722656 118.839844 C 296.90625 117.246094 296.019531 115.683594 295.082031 114.160156 C 294.222656 112.761719 293.402344 111.332031 292.476562 109.972656 C 291.65625 108.738281 290.769531 107.558594 289.816406 106.425781 C 288.492188 104.886719 286.910156 103.679688 285.074219 102.808594 C 283.824219 102.210938 282.53125 101.726562 281.195312 101.355469 C 280.058594 101.050781 278.929688 100.65625 277.78125 100.339844 C 277.25 100.191406 276.726562 99.960938 276.152344 99.976562 C 275.996094 99.980469 275.871094 99.84375 275.746094 99.75 Z M 275.746094 99.570312 " fill-opacity="1" fill-rule="nonzero"/></g><g clip-path="url(#1d50157a30)"><path fill="#f6d636" d="M 47.785156 225.433594 C 48.355469 225.058594 49.03125 224.964844 49.667969 224.796875 C 50.921875 224.460938 52.222656 224.316406 53.453125 223.878906 C 55.378906 223.203125 57.347656 222.609375 59.195312 221.742188 C 61.25 220.796875 63.214844 219.6875 65.082031 218.414062 C 65.914062 217.855469 66.695312 217.230469 67.425781 216.542969 C 68.808594 215.226562 69.960938 213.730469 70.878906 212.058594 C 71.832031 210.285156 72.394531 208.382812 73.011719 206.492188 C 73.71875 204.285156 74.308594 202.046875 74.78125 199.777344 C 74.9375 199.035156 74.996094 198.273438 75.117188 197.527344 C 75.183594 197.230469 75.335938 196.988281 75.570312 196.796875 C 75.734375 196.660156 75.910156 196.761719 76.027344 197.035156 C 76.347656 197.753906 76.605469 198.492188 76.800781 199.253906 C 77.355469 201.253906 77.984375 203.234375 78.695312 205.175781 C 79.253906 206.625 79.910156 208.03125 80.664062 209.386719 C 81.070312 210.148438 83.558594 214.425781 84.085938 215.074219 C 85.367188 216.699219 86.9375 217.96875 88.792969 218.886719 C 89.734375 219.339844 90.710938 219.699219 91.722656 219.96875 C 93.074219 220.34375 94.425781 220.832031 95.777344 221.230469 C 97.488281 221.746094 99.230469 222.132812 101 222.394531 C 101.898438 222.550781 102.785156 222.765625 103.65625 223.035156 C 103.902344 223.105469 103.945312 223.28125 103.78125 223.476562 C 103.652344 223.609375 103.496094 223.699219 103.316406 223.75 C 102.691406 223.980469 102.050781 224.167969 101.402344 224.3125 C 99.621094 224.785156 97.890625 225.398438 96.207031 226.144531 C 93.878906 227.128906 91.730469 228.410156 89.757812 229.988281 C 89.082031 230.539062 88.355469 231.058594 87.648438 231.585938 C 86.601562 232.375 85.832031 233.398438 85.042969 234.433594 C 82.003906 238.265625 78.6875 250.503906 78.488281 251.503906 C 78.46875 251.609375 78.4375 251.710938 78.394531 251.8125 C 78.335938 251.945312 78.285156 252.148438 78.128906 252.148438 C 77.949219 252.109375 77.824219 252.007812 77.753906 251.839844 C 76.640625 249.652344 75.433594 247.511719 74.15625 245.425781 C 72.984375 243.507812 71.863281 241.550781 70.601562 239.6875 C 69.484375 237.996094 68.273438 236.375 66.972656 234.824219 C 65.167969 232.714844 63.011719 231.0625 60.503906 229.867188 C 58.800781 229.050781 57.039062 228.386719 55.21875 227.875 C 53.664062 227.457031 52.121094 226.921875 50.558594 226.484375 C 49.832031 226.285156 49.121094 225.964844 48.335938 225.984375 C 48.121094 225.992188 47.953125 225.808594 47.785156 225.675781 Z M 47.785156 225.433594 " fill-opacity="1" fill-rule="nonzero"/></g></svg>