<svg xmlns="http://www.w3.org/2000/svg" xmlns:xlink="http://www.w3.org/1999/xlink" width="512" zoomAndPan="magnify" viewBox="0 0 384 383.999986" height="512" preserveAspectRatio="xMidYMid meet" version="1.0"><defs><g/><clipPath id="699e0adadc"><rect x="0" width="68" y="0" height="118"/></clipPath><clipPath id="be10dfd7f2"><rect x="0" width="82" y="0" height="130"/></clipPath><clipPath id="71d47a2368"><path d="M 0.160156 30 L 74 30 L 74 107 L 0.160156 107 Z M 0.160156 30 " clip-rule="nonzero"/></clipPath><clipPath id="f969ff82d0"><rect x="0" width="78" y="0" height="134"/></clipPath><clipPath id="cae20bf33f"><rect x="0" width="63" y="0" height="129"/></clipPath><clipPath id="69838f76bf"><rect x="0" width="69" y="0" height="127"/></clipPath><clipPath id="d1193f8df8"><path d="M 0.480469 27 L 75 27 L 75 102 L 0.480469 102 Z M 0.480469 27 " clip-rule="nonzero"/></clipPath><clipPath id="8576d827bd"><rect x="0" width="77" y="0" height="128"/></clipPath><clipPath id="0b45cd1ac2"><path d="M 0.199219 24 L 68 24 L 68 103 L 0.199219 103 Z M 0.199219 24 " clip-rule="nonzero"/></clipPath><clipPath id="441194f47d"><rect x="0" width="71" y="0" height="130"/></clipPath><clipPath id="2501048f54"><rect x="0" width="140" y="0" height="85"/></clipPath><clipPath id="e2de8332c8"><rect x="0" width="64" y="0" height="59"/></clipPath><clipPath id="7d06a73e6b"><path d="M 267.335938 124.484375 L 304.835938 124.484375 L 304.835938 161.234375 L 267.335938 161.234375 Z M 267.335938 124.484375 " clip-rule="nonzero"/></clipPath><clipPath id="901a3c90df"><path d="M 62.160156 230.761719 L 113.160156 230.761719 L 113.160156 281 L 62.160156 281 Z M 62.160156 230.761719 " clip-rule="nonzero"/></clipPath></defs><g transform="matrix(1, 0, 0, 1, 298, 126)"><g clip-path="url(#699e0adadc)"><g fill="#ffcb65" fill-opacity="1"><g transform="translate(0.356253, 93.336536)"><g><path d="M 6.4375 -62.921875 C 7.113281 -63.210938 7.832031 -63.460938 8.59375 -63.671875 C 9.351562 -63.847656 10.101562 -64.066406 10.84375 -64.328125 C 15.65625 -65.941406 21.46875 -67.234375 28.28125 -68.203125 C 35.070312 -69.140625 41.171875 -69.226562 46.578125 -68.46875 C 47.953125 -68.257812 49.390625 -67.9375 50.890625 -67.5 C 52.390625 -67.03125 53.578125 -66.265625 54.453125 -65.203125 C 55.421875 -63.972656 56.203125 -61.359375 56.796875 -57.359375 C 57.347656 -53.335938 56.257812 -51.222656 53.53125 -51.015625 C 52.769531 -50.960938 51.992188 -51.007812 51.203125 -51.15625 C 50.410156 -51.300781 49.660156 -51.429688 48.953125 -51.546875 C 43.898438 -52.335938 39.195312 -52.660156 34.84375 -52.515625 C 30.5 -52.335938 26.019531 -51.835938 21.40625 -51.015625 C 21.351562 -47.316406 21.457031 -43.78125 21.71875 -40.40625 C 25.625 -40.875 29.367188 -41.285156 32.953125 -41.640625 C 36.535156 -41.992188 39.003906 -42.15625 40.359375 -42.125 C 43.085938 -42.0625 44.453125 -40.3125 44.453125 -36.875 C 44.421875 -33.4375 44.007812 -31.191406 43.21875 -30.140625 C 42.25 -28.816406 39.753906 -27.773438 35.734375 -27.015625 C 31.710938 -26.242188 27.6875 -25.695312 23.65625 -25.375 C 24.1875 -22.5625 24.878906 -19.757812 25.734375 -16.96875 C 26.410156 -16.988281 27.171875 -17.046875 28.015625 -17.140625 C 28.835938 -17.203125 29.796875 -17.273438 30.890625 -17.359375 C 35.054688 -17.679688 39.148438 -18.195312 43.171875 -18.90625 C 47.171875 -19.582031 50.875 -20.445312 54.28125 -21.5 C 54.632812 -21.59375 55.003906 -21.710938 55.390625 -21.859375 C 55.734375 -22.003906 56.097656 -22.132812 56.484375 -22.25 C 57.335938 -22.488281 58.085938 -22.632812 58.734375 -22.6875 C 60.109375 -22.78125 61.109375 -22.238281 61.734375 -21.0625 C 62.347656 -19.882812 62.726562 -18.503906 62.875 -16.921875 C 63.164062 -13.335938 62.785156 -10.632812 61.734375 -8.8125 C 61.140625 -7.78125 60.082031 -6.851562 58.5625 -6.03125 C 57.5625 -5.507812 56.175781 -4.984375 54.40625 -4.453125 C 51.769531 -3.660156 48.425781 -3 44.375 -2.46875 C 40.3125 -1.9375 36.125 -1.566406 31.8125 -1.359375 C 29.195312 -1.179688 25.804688 -0.976562 21.640625 -0.75 C 17.429688 -0.507812 14.269531 -0.816406 12.15625 -1.671875 C 10.601562 -2.285156 9.382812 -3.316406 8.5 -4.765625 C 7.625 -6.171875 6.921875 -7.5625 6.390625 -8.9375 C 5.328125 -11.550781 4.414062 -14.929688 3.65625 -19.078125 C 2.863281 -23.222656 2.257812 -27.507812 1.84375 -31.9375 C 1.4375 -36.34375 1.234375 -40.617188 1.234375 -44.765625 C 1.234375 -48.878906 1.5 -52.242188 2.03125 -54.859375 C 2.5 -57.203125 3.128906 -59.082031 3.921875 -60.5 C 4.535156 -61.613281 5.375 -62.421875 6.4375 -62.921875 Z M 6.4375 -62.921875 "/></g></g></g></g></g><g transform="matrix(1, 0, 0, 1, 240, 122)"><g clip-path="url(#be10dfd7f2)"><g fill="#9d71e4" fill-opacity="1"><g transform="translate(1.83283, 103.44422)"><g><path d="M 58.4375 -73.296875 C 61.5625 -72.578125 64.035156 -71.679688 65.859375 -70.609375 C 68.015625 -69.304688 69.09375 -67.757812 69.09375 -65.96875 C 69.09375 -63.875 68.910156 -61.785156 68.546875 -59.703125 C 68.191406 -57.617188 67.492188 -55.660156 66.453125 -53.828125 C 64.953125 -51.191406 63.5 -49.875 62.09375 -49.875 C 60.820312 -49.875 59.582031 -50.085938 58.375 -50.515625 C 57.144531 -50.929688 55.941406 -51.335938 54.765625 -51.734375 C 52.316406 -52.546875 48.992188 -52.890625 44.796875 -52.765625 C 40.585938 -52.597656 36.640625 -51.679688 32.953125 -50.015625 C 29.234375 -48.359375 26.382812 -45.785156 24.40625 -42.296875 C 22.382812 -38.804688 22.382812 -34.144531 24.40625 -28.3125 C 25.863281 -24.039062 28.859375 -20.976562 33.390625 -19.125 C 37.921875 -17.226562 42.535156 -16.507812 47.234375 -16.96875 C 45.179688 -18.101562 43.8125 -18.898438 43.125 -19.359375 C 42.21875 -19.984375 41.5 -20.671875 40.96875 -21.421875 C 40.519531 -22.003906 40.226562 -22.703125 40.09375 -23.515625 C 39.738281 -25.671875 39.882812 -27.90625 40.53125 -30.21875 C 41.050781 -32.101562 42.796875 -32.820312 45.765625 -32.375 C 48.734375 -31.914062 51.992188 -30.984375 55.546875 -29.578125 C 59.066406 -28.148438 62.425781 -26.585938 65.625 -24.890625 C 68.8125 -23.160156 70.910156 -21.988281 71.921875 -21.375 C 74.460938 -19.707031 74.238281 -17.03125 71.25 -13.34375 C 68.207031 -9.664062 65.8125 -7.191406 64.0625 -5.921875 C 62.820312 -5.035156 61.597656 -4.285156 60.390625 -3.671875 C 57.066406 -1.910156 53.722656 -0.882812 50.359375 -0.59375 C 47.003906 -0.289062 43.664062 -0.289062 40.34375 -0.59375 C 35.90625 -1.007812 31.648438 -2.035156 27.578125 -3.671875 C 24.347656 -4.941406 21.269531 -6.632812 18.34375 -8.75 C 15.375 -10.832031 12.765625 -13.410156 10.515625 -16.484375 C 6.335938 -22.085938 3.550781 -28.328125 2.15625 -35.203125 C -0.09375 -45.828125 2.476562 -54.695312 9.875 -61.8125 C 13.59375 -65.394531 17.800781 -68.082031 22.5 -69.875 C 27.15625 -71.664062 31.664062 -72.921875 36.03125 -73.640625 C 39.6875 -74.222656 43.421875 -74.515625 47.234375 -74.515625 C 51.046875 -74.515625 54.78125 -74.109375 58.4375 -73.296875 Z M 58.4375 -73.296875 "/></g></g></g></g></g><g transform="matrix(1, 0, 0, 1, 80, 143)"><g clip-path="url(#f969ff82d0)"><g clip-path="url(#71d47a2368)"><g fill="#31a768" fill-opacity="1"><g transform="translate(0.895821, 105.983772)"><g><path d="M 3.875 -44.859375 C 5.1875 -47.472656 6.664062 -50.003906 8.3125 -52.453125 C 9.914062 -54.867188 11.796875 -57.132812 13.953125 -59.25 C 14.890625 -60.195312 15.8125 -61.070312 16.71875 -61.875 C 22.488281 -67.039062 29.066406 -70.613281 36.453125 -72.59375 C 42.796875 -74.3125 48.882812 -74.332031 54.71875 -72.65625 C 57.539062 -71.84375 60.328125 -70.347656 63.078125 -68.171875 C 65.835938 -65.984375 67.921875 -63.582031 69.328125 -60.96875 C 70.234375 -59.257812 70.90625 -57.429688 71.34375 -55.484375 C 71.738281 -53.535156 72.039062 -51.601562 72.25 -49.6875 C 72.78125 -43.082031 72.175781 -37.09375 70.4375 -31.71875 C 69.363281 -28.5 67.800781 -25.359375 65.75 -22.296875 C 63.664062 -19.210938 61.519531 -16.460938 59.3125 -14.046875 C 55.988281 -10.421875 52.210938 -7.367188 47.984375 -4.890625 C 43.722656 -2.398438 39.125 -0.90625 34.1875 -0.40625 C 29.21875 0 24.414062 -0.601562 19.78125 -2.21875 C 16.257812 -3.425781 12.988281 -5.132812 9.96875 -7.34375 C 6.914062 -9.53125 4.566406 -12.335938 2.921875 -15.765625 C 1.335938 -19.046875 0.445312 -22.90625 0.25 -27.34375 C 0.0195312 -33.75 1.226562 -39.585938 3.875 -44.859375 Z M 23.5625 -34.140625 C 23.5625 -30.878906 25.390625 -27.503906 29.046875 -24.015625 C 32.671875 -20.523438 36.347656 -19.71875 40.078125 -21.59375 C 42.492188 -22.800781 43.953125 -24.460938 44.453125 -26.578125 C 44.960938 -28.691406 44.863281 -30.910156 44.15625 -33.234375 C 43.3125 -35.847656 41.765625 -38.007812 39.515625 -39.71875 C 37.273438 -41.394531 34.976562 -42.382812 32.625 -42.6875 C 30.238281 -42.988281 28.140625 -42.488281 26.328125 -41.1875 C 24.484375 -39.84375 23.5625 -37.492188 23.5625 -34.140625 Z M 23.5625 -34.140625 "/></g></g></g></g></g></g><g transform="matrix(1, 0, 0, 1, 133, 145)"><g clip-path="url(#cae20bf33f)"><g fill="#f93d3a" fill-opacity="1"><g transform="translate(0.570498, 102.558943)"><g><path d="M 11.015625 -4.75 C 9.679688 -4.976562 8.644531 -5.253906 7.90625 -5.578125 C 6.769531 -6.066406 5.847656 -6.90625 5.140625 -8.09375 C 4.203125 -9.644531 3.441406 -11.734375 2.859375 -14.359375 C 2.117188 -17.234375 1.601562 -21.015625 1.3125 -25.703125 C 0.988281 -30.359375 0.859375 -35.210938 0.921875 -40.265625 C 0.984375 -45.304688 1.257812 -50.203125 1.75 -54.953125 C 2.226562 -59.710938 2.921875 -63.644531 3.828125 -66.75 C 4.253906 -68.300781 4.867188 -69.914062 5.671875 -71.59375 C 6.453125 -73.28125 7.617188 -74.554688 9.171875 -75.421875 C 10.003906 -75.878906 11.441406 -76.285156 13.484375 -76.640625 C 15.492188 -76.992188 17.53125 -77.125 19.59375 -77.03125 C 21.664062 -76.9375 23.492188 -76.546875 25.078125 -75.859375 C 26.628906 -75.148438 27.390625 -74.003906 27.359375 -72.421875 C 27.328125 -71.546875 27.164062 -70.65625 26.875 -69.75 C 26.550781 -68.84375 26.273438 -67.988281 26.046875 -67.1875 C 24.015625 -60.550781 22.707031 -53.03125 22.125 -44.625 C 21.539062 -36.21875 21.570312 -28.117188 22.21875 -20.328125 C 26.96875 -19.710938 31.5625 -19.484375 36 -19.640625 C 40.394531 -19.804688 45.113281 -20.566406 50.15625 -21.921875 C 50.863281 -22.117188 51.625 -22.347656 52.4375 -22.609375 C 53.207031 -22.828125 53.984375 -22.9375 54.765625 -22.9375 C 57.578125 -22.90625 58.835938 -20.59375 58.546875 -16 C 58.253906 -11.414062 57.671875 -8.394531 56.796875 -6.9375 C 55.992188 -5.644531 54.847656 -4.675781 53.359375 -4.03125 C 51.835938 -3.382812 50.398438 -2.898438 49.046875 -2.578125 C 43.609375 -1.273438 37.414062 -0.882812 30.46875 -1.40625 C 23.476562 -1.894531 17.476562 -2.863281 12.46875 -4.3125 C 12.207031 -4.382812 11.960938 -4.453125 11.734375 -4.515625 C 11.472656 -4.578125 11.234375 -4.65625 11.015625 -4.75 Z M 11.015625 -4.75 "/></g></g></g></g></g><g transform="matrix(1, 0, 0, 1, 167, 139)"><g clip-path="url(#69838f76bf)"><g fill="#e8678f" fill-opacity="1"><g transform="translate(7.594022, 101.440801)"><g><path d="M 10.078125 -5.15625 C 8.816406 -5.289062 7.828125 -5.484375 7.109375 -5.734375 C 6.003906 -6.128906 5.082031 -6.863281 4.34375 -7.9375 C 3.375 -9.351562 2.53125 -11.269531 1.8125 -13.6875 C 0.9375 -16.363281 0.210938 -19.898438 -0.359375 -24.296875 C -0.941406 -28.660156 -1.359375 -33.222656 -1.609375 -37.984375 C -1.859375 -42.742188 -1.90625 -47.375 -1.75 -51.875 C -1.59375 -56.382812 -1.175781 -60.128906 -0.5 -63.109375 C -0.21875 -64.597656 0.25 -66.160156 0.90625 -67.796875 C 1.53125 -69.421875 2.550781 -70.691406 3.96875 -71.609375 C 4.738281 -72.085938 6.066406 -72.554688 7.953125 -73.015625 C 9.816406 -73.484375 11.726562 -73.738281 13.6875 -73.78125 C 15.65625 -73.8125 17.40625 -73.554688 18.9375 -73.015625 C 20.4375 -72.441406 21.21875 -71.40625 21.28125 -69.90625 C 21.300781 -69.082031 21.210938 -68.234375 21.015625 -67.359375 C 20.753906 -66.484375 20.546875 -65.660156 20.390625 -64.890625 C 18.867188 -58.523438 18.09375 -51.363281 18.0625 -43.40625 C 18.039062 -35.445312 18.578125 -27.816406 19.671875 -20.515625 C 24.179688 -20.222656 28.519531 -20.296875 32.6875 -20.734375 C 36.8125 -21.160156 41.207031 -22.171875 45.875 -23.765625 C 46.539062 -23.984375 47.242188 -24.242188 47.984375 -24.546875 C 48.703125 -24.796875 49.429688 -24.945312 50.171875 -25 C 52.816406 -25.144531 54.144531 -23.046875 54.15625 -18.703125 C 54.164062 -14.359375 53.8125 -11.472656 53.09375 -10.046875 C 52.40625 -8.773438 51.378906 -7.785156 50.015625 -7.078125 C 48.617188 -6.390625 47.296875 -5.847656 46.046875 -5.453125 C 41.015625 -3.898438 35.195312 -3.15625 28.59375 -3.21875 C 21.988281 -3.238281 16.28125 -3.773438 11.46875 -4.828125 C 11.21875 -4.878906 10.984375 -4.925781 10.765625 -4.96875 C 10.535156 -5.007812 10.304688 -5.070312 10.078125 -5.15625 Z M 10.078125 -5.15625 "/></g></g></g></g></g><g transform="matrix(1, 0, 0, 1, 18, 138)"><g clip-path="url(#8576d827bd)"><g clip-path="url(#d1193f8df8)"><g fill="#3d98d6" fill-opacity="1"><g transform="translate(1.930593, 101.564937)"><g><path d="M 57.78125 -72.46875 C 60.875 -71.757812 63.320312 -70.875 65.125 -69.8125 C 67.25 -68.519531 68.3125 -66.988281 68.3125 -65.21875 C 68.3125 -63.15625 68.132812 -61.09375 67.78125 -59.03125 C 67.425781 -56.96875 66.734375 -55.035156 65.703125 -53.234375 C 64.222656 -50.617188 62.789062 -49.3125 61.40625 -49.3125 C 60.144531 -49.3125 58.921875 -49.519531 57.734375 -49.9375 C 56.503906 -50.363281 55.3125 -50.769531 54.15625 -51.15625 C 51.726562 -51.957031 48.4375 -52.296875 44.28125 -52.171875 C 40.125 -52.003906 36.226562 -51.097656 32.59375 -49.453125 C 28.914062 -47.816406 26.09375 -45.273438 24.125 -41.828125 C 22.125 -38.367188 22.125 -33.757812 24.125 -28 C 25.570312 -23.769531 28.535156 -20.738281 33.015625 -18.90625 C 37.492188 -17.03125 42.054688 -16.320312 46.703125 -16.78125 C 50.242188 -17.132812 53.96875 -18.503906 57.875 -20.890625 C 61.769531 -23.273438 65.671875 -22.4375 69.578125 -18.375 C 71.828125 -15.988281 71.789062 -13.617188 69.46875 -11.265625 C 67.125 -8.910156 65.078125 -7.101562 63.328125 -5.84375 C 62.109375 -4.976562 60.898438 -4.238281 59.703125 -3.625 C 56.421875 -1.882812 53.117188 -0.867188 49.796875 -0.578125 C 46.472656 -0.285156 43.171875 -0.285156 39.890625 -0.578125 C 35.503906 -0.992188 31.296875 -2.007812 27.265625 -3.625 C 24.078125 -4.882812 21.03125 -6.5625 18.125 -8.65625 C 15.195312 -10.71875 12.617188 -13.265625 10.390625 -16.296875 C 6.265625 -21.835938 3.507812 -28.007812 2.125 -34.8125 C -0.09375 -45.320312 2.453125 -54.085938 9.765625 -61.109375 C 13.441406 -64.648438 17.597656 -67.3125 22.234375 -69.09375 C 26.847656 -70.863281 31.3125 -72.101562 35.625 -72.8125 C 39.238281 -73.394531 42.929688 -73.6875 46.703125 -73.6875 C 50.472656 -73.6875 54.164062 -73.28125 57.78125 -72.46875 Z M 57.78125 -72.46875 "/></g></g></g></g></g></g><g transform="matrix(1, 0, 0, 1, 199, 138)"><g clip-path="url(#441194f47d)"><g clip-path="url(#0b45cd1ac2)"><g fill="#3d98d6" fill-opacity="1"><g transform="translate(0.353961, 102.670936)"><g><path d="M 43.21875 -18.390625 C 40.78125 -17.503906 37.410156 -16.753906 33.109375 -16.140625 C 28.765625 -15.515625 25.128906 -15.285156 22.203125 -15.453125 C 21.453125 -11.898438 20.878906 -8.6875 20.484375 -5.8125 C 20.066406 -3.039062 19.125 -1.410156 17.65625 -0.921875 C 16.15625 -0.441406 14.3125 -0.394531 12.125 -0.78125 C 10.625 -1.039062 8.976562 -1.515625 7.1875 -2.203125 C 5.363281 -2.847656 3.847656 -3.660156 2.640625 -4.640625 C 1.628906 -5.492188 0.945312 -6.671875 0.59375 -8.171875 C 0.289062 -9.304688 0.125 -10.507812 0.09375 -11.78125 C 0.03125 -13.019531 0.03125 -14.226562 0.09375 -15.40625 C 0.257812 -18.632812 0.910156 -22.738281 2.046875 -27.71875 C 3.191406 -32.707031 4.613281 -37.828125 6.3125 -43.078125 C 7.96875 -48.328125 9.804688 -53.363281 11.828125 -58.1875 C 13.816406 -63.007812 15.757812 -66.890625 17.65625 -69.828125 C 18.59375 -71.328125 19.75 -72.84375 21.125 -74.375 C 22.488281 -75.875 24.101562 -76.816406 25.96875 -77.203125 C 27.820312 -77.597656 30.28125 -77.550781 33.34375 -77.0625 C 36.40625 -76.570312 38.703125 -75.691406 40.234375 -74.421875 C 42.910156 -72.984375 45.703125 -69.753906 48.609375 -64.734375 C 51.472656 -59.710938 54.128906 -54.1875 56.578125 -48.15625 C 59.015625 -42.09375 61.113281 -36.175781 62.875 -30.40625 C 64.601562 -24.644531 65.664062 -20.328125 66.0625 -17.453125 C 66.445312 -14.585938 66.507812 -12.175781 66.25 -10.21875 C 65.957031 -8.59375 65.359375 -7.367188 64.453125 -6.546875 C 63.304688 -5.441406 61.867188 -4.484375 60.140625 -3.671875 C 58.410156 -2.847656 56.8125 -2.242188 55.34375 -1.859375 C 53.195312 -1.273438 51.359375 -1.175781 49.828125 -1.5625 C 48.296875 -1.925781 47.234375 -3.457031 46.640625 -6.15625 C 45.765625 -9.78125 44.625 -13.859375 43.21875 -18.390625 Z M 24.546875 -24.984375 C 29.535156 -24.921875 34.75 -25.539062 40.1875 -26.84375 C 37.675781 -33.425781 34.84375 -39.703125 31.6875 -45.671875 C 28.976562 -39.316406 26.597656 -32.421875 24.546875 -24.984375 Z M 24.546875 -24.984375 "/></g></g></g></g></g></g><g transform="matrix(1, 0, 0, 1, 18, 100)"><g clip-path="url(#2501048f54)"><g fill="#25754a" fill-opacity="1"><g transform="translate(7.772986, 37.390328)"><g><path d="M 7.203125 3.625 C 5.972656 3.070312 5.050781 2.160156 4.4375 0.890625 C 3.832031 -0.378906 3.566406 -1.867188 3.640625 -3.578125 C 3.722656 -5.285156 4.160156 -7.023438 4.953125 -8.796875 C 5.753906 -10.585938 6.765625 -12.0625 7.984375 -13.21875 C 9.203125 -14.382812 10.492188 -15.164062 11.859375 -15.5625 C 13.234375 -15.96875 14.523438 -15.898438 15.734375 -15.359375 C 16.953125 -14.804688 17.859375 -13.882812 18.453125 -12.59375 C 19.054688 -11.3125 19.328125 -9.828125 19.265625 -8.140625 C 19.203125 -6.460938 18.769531 -4.726562 17.96875 -2.9375 C 17.175781 -1.164062 16.164062 0.3125 14.9375 1.5 C 13.71875 2.695312 12.425781 3.488281 11.0625 3.875 C 9.707031 4.257812 8.421875 4.175781 7.203125 3.625 Z M 7.609375 2.71875 C 10.109375 3.851562 12.644531 1.554688 15.21875 -4.171875 C 17.789062 -9.890625 17.828125 -13.316406 15.328125 -14.453125 C 12.816406 -15.578125 10.273438 -13.28125 7.703125 -7.5625 C 5.128906 -1.832031 5.097656 1.59375 7.609375 2.71875 Z M 7.609375 2.71875 "/></g></g></g><g fill="#25754a" fill-opacity="1"><g transform="translate(28.473437, 46.308435)"><g><path d="M 5.359375 2.3125 C 4.484375 2 3.875 1.4375 3.53125 0.625 C 3.195312 -0.175781 3.285156 -1.28125 3.796875 -2.6875 L 8.796875 -16.625 C 8.910156 -16.925781 8.820312 -17.132812 8.53125 -17.25 L 7.4375 -17.640625 C 7.039062 -17.785156 6.894531 -18.003906 7 -18.296875 C 7.070312 -18.503906 7.242188 -18.640625 7.515625 -18.703125 C 8.546875 -18.960938 9.425781 -19.335938 10.15625 -19.828125 C 10.894531 -20.316406 11.65625 -21.0625 12.4375 -22.0625 C 12.800781 -22.519531 13.109375 -22.703125 13.359375 -22.609375 C 13.628906 -22.515625 13.691406 -22.269531 13.546875 -21.875 L 12.0625 -17.734375 C 11.9375 -17.390625 12.050781 -17.15625 12.40625 -17.03125 L 14.828125 -16.15625 C 15.234375 -16.007812 15.375 -15.757812 15.25 -15.40625 C 15.125 -15.0625 14.859375 -14.960938 14.453125 -15.109375 L 12.03125 -15.984375 C 11.675781 -16.109375 11.4375 -15.992188 11.3125 -15.640625 L 6.3125 -1.734375 C 6.113281 -1.179688 6.046875 -0.71875 6.109375 -0.34375 C 6.171875 0.0195312 6.4375 0.285156 6.90625 0.453125 C 7.425781 0.640625 7.945312 0.53125 8.46875 0.125 C 9 -0.269531 9.523438 -1.03125 10.046875 -2.15625 C 10.222656 -2.476562 10.445312 -2.59375 10.71875 -2.5 C 11.019531 -2.382812 11.101562 -2.144531 10.96875 -1.78125 C 10.207031 0.101562 9.316406 1.34375 8.296875 1.9375 C 7.273438 2.53125 6.296875 2.65625 5.359375 2.3125 Z M 5.359375 2.3125 "/></g></g></g><g fill="#25754a" fill-opacity="1"><g transform="translate(44.062536, 51.700136)"><g><path d="M 5.5 1.953125 C 4.613281 1.691406 3.972656 1.171875 3.578125 0.390625 C 3.179688 -0.390625 3.1875 -1.492188 3.59375 -2.921875 L 7.6875 -17.171875 C 7.78125 -17.472656 7.679688 -17.664062 7.390625 -17.75 L 6.265625 -18.078125 C 5.859375 -18.191406 5.695312 -18.398438 5.78125 -18.703125 C 5.84375 -18.910156 6.007812 -19.0625 6.28125 -19.15625 C 7.289062 -19.5 8.144531 -19.929688 8.84375 -20.453125 C 9.550781 -20.984375 10.257812 -21.773438 10.96875 -22.828125 C 11.3125 -23.316406 11.613281 -23.523438 11.875 -23.453125 C 12.144531 -23.367188 12.21875 -23.117188 12.09375 -22.703125 L 10.875 -18.46875 C 10.78125 -18.125 10.910156 -17.90625 11.265625 -17.8125 L 13.75 -17.09375 C 14.15625 -16.976562 14.304688 -16.738281 14.203125 -16.375 C 14.097656 -16.019531 13.84375 -15.898438 13.4375 -16.015625 L 10.953125 -16.734375 C 10.597656 -16.828125 10.367188 -16.695312 10.265625 -16.34375 L 6.1875 -2.140625 C 6.019531 -1.578125 5.976562 -1.113281 6.0625 -0.75 C 6.15625 -0.382812 6.441406 -0.128906 6.921875 0.015625 C 7.453125 0.160156 7.96875 0.0195312 8.46875 -0.40625 C 8.96875 -0.84375 9.4375 -1.644531 9.875 -2.8125 C 10.03125 -3.144531 10.25 -3.273438 10.53125 -3.203125 C 10.84375 -3.109375 10.941406 -2.875 10.828125 -2.5 C 10.179688 -0.5625 9.375 0.734375 8.40625 1.390625 C 7.4375 2.046875 6.46875 2.234375 5.5 1.953125 Z M 5.5 1.953125 "/></g></g></g><g fill="#25754a" fill-opacity="1"><g transform="translate(60.086706, 56.165585)"><g><path d="M 4.578125 1.3125 C 3.492188 1.09375 2.675781 0.566406 2.125 -0.265625 C 1.570312 -1.109375 1.410156 -2.09375 1.640625 -3.21875 C 1.867188 -4.332031 2.4375 -5.316406 3.34375 -6.171875 C 4.25 -7.023438 5.390625 -7.726562 6.765625 -8.28125 C 8.140625 -8.832031 9.660156 -9.191406 11.328125 -9.359375 C 11.679688 -9.390625 11.894531 -9.570312 11.96875 -9.90625 L 12.6875 -13.4375 C 12.945312 -14.6875 12.9375 -15.617188 12.65625 -16.234375 C 12.375 -16.847656 11.894531 -17.222656 11.21875 -17.359375 C 10.570312 -17.492188 9.925781 -17.320312 9.28125 -16.84375 C 8.632812 -16.375 8.050781 -15.476562 7.53125 -14.15625 C 7.226562 -13.34375 6.828125 -12.796875 6.328125 -12.515625 C 5.828125 -12.234375 5.359375 -12.140625 4.921875 -12.234375 C 4.191406 -12.378906 3.898438 -12.8125 4.046875 -13.53125 C 4.203125 -14.28125 4.566406 -14.976562 5.140625 -15.625 C 5.722656 -16.28125 6.425781 -16.835938 7.25 -17.296875 C 8.070312 -17.765625 8.929688 -18.09375 9.828125 -18.28125 C 10.734375 -18.476562 11.601562 -18.488281 12.4375 -18.3125 C 15 -17.789062 15.972656 -16.039062 15.359375 -13.0625 L 12.921875 -1.1875 C 12.691406 -0.09375 12.847656 0.507812 13.390625 0.625 C 13.722656 0.695312 14.078125 0.535156 14.453125 0.140625 C 14.835938 -0.253906 15.144531 -1 15.375 -2.09375 C 15.457031 -2.5 15.664062 -2.664062 16 -2.59375 C 16.3125 -2.53125 16.421875 -2.28125 16.328125 -1.84375 C 15.941406 0.0390625 15.328125 1.335938 14.484375 2.046875 C 13.648438 2.753906 12.820312 3.019531 12 2.84375 C 11.375 2.71875 10.929688 2.363281 10.671875 1.78125 C 10.410156 1.207031 10.289062 0.550781 10.3125 -0.1875 C 10.34375 -0.4375 10.265625 -0.585938 10.078125 -0.640625 C 9.890625 -0.703125 9.675781 -0.625 9.4375 -0.40625 C 8.632812 0.320312 7.863281 0.835938 7.125 1.140625 C 6.382812 1.453125 5.535156 1.507812 4.578125 1.3125 Z M 6 -0.265625 C 6.675781 -0.117188 7.347656 -0.226562 8.015625 -0.59375 C 8.691406 -0.957031 9.289062 -1.5 9.8125 -2.21875 C 10.34375 -2.945312 10.710938 -3.816406 10.921875 -4.828125 L 11.5 -7.65625 C 11.601562 -8.144531 11.359375 -8.34375 10.765625 -8.25 C 9.066406 -8.007812 7.679688 -7.484375 6.609375 -6.671875 C 5.546875 -5.859375 4.867188 -4.75 4.578125 -3.34375 C 4.210938 -1.5625 4.6875 -0.535156 6 -0.265625 Z M 6 -0.265625 "/></g></g></g><g fill="#25754a" fill-opacity="1"><g transform="translate(82.170433, 60.567357)"><g><path d="M 7.34375 1.09375 C 7 1.050781 6.789062 0.757812 6.71875 0.21875 L 3.625 -17.296875 C 3.5 -17.941406 3.359375 -18.363281 3.203125 -18.5625 C 3.054688 -18.757812 2.804688 -18.914062 2.453125 -19.03125 L 1.859375 -19.21875 C 1.515625 -19.332031 1.359375 -19.523438 1.390625 -19.796875 C 1.421875 -20.054688 1.625 -20.164062 2 -20.125 L 8.390625 -19.484375 C 8.765625 -19.453125 8.9375 -19.304688 8.90625 -19.046875 C 8.875 -18.753906 8.6875 -18.597656 8.34375 -18.578125 L 7.6875 -18.546875 C 7.050781 -18.535156 6.644531 -18.425781 6.46875 -18.21875 C 6.289062 -18.007812 6.253906 -17.613281 6.359375 -17.03125 L 8.328125 -5.234375 C 8.378906 -4.953125 8.488281 -4.800781 8.65625 -4.78125 C 8.820312 -4.769531 8.957031 -4.894531 9.0625 -5.15625 L 12.765625 -15.109375 C 12.835938 -15.316406 12.890625 -15.523438 12.921875 -15.734375 C 12.960938 -15.941406 12.953125 -16.164062 12.890625 -16.40625 C 12.773438 -17.050781 12.640625 -17.46875 12.484375 -17.65625 C 12.328125 -17.84375 12.070312 -18 11.71875 -18.125 L 11.140625 -18.296875 C 10.796875 -18.410156 10.640625 -18.601562 10.671875 -18.875 C 10.703125 -19.132812 10.898438 -19.242188 11.265625 -19.203125 L 17.65625 -18.578125 C 18.03125 -18.535156 18.203125 -18.382812 18.171875 -18.125 C 18.140625 -17.832031 17.953125 -17.675781 17.609375 -17.65625 L 16.953125 -17.640625 C 16.328125 -17.628906 15.9375 -17.515625 15.78125 -17.296875 C 15.625 -17.085938 15.570312 -16.691406 15.625 -16.109375 L 17.015625 -4.453125 C 17.035156 -4.179688 17.128906 -4.035156 17.296875 -4.015625 C 17.472656 -3.992188 17.617188 -4.117188 17.734375 -4.390625 L 21.78125 -14.765625 C 22.0625 -15.460938 22.171875 -15.988281 22.109375 -16.34375 C 22.054688 -16.707031 21.707031 -16.972656 21.0625 -17.140625 L 20.25 -17.40625 C 19.90625 -17.507812 19.75 -17.695312 19.78125 -17.96875 C 19.8125 -18.226562 20.007812 -18.34375 20.375 -18.3125 L 25.3125 -17.8125 C 25.6875 -17.78125 25.859375 -17.617188 25.828125 -17.328125 C 25.796875 -17.066406 25.613281 -16.894531 25.28125 -16.8125 L 24.9375 -16.734375 C 24.519531 -16.640625 24.148438 -16.429688 23.828125 -16.109375 C 23.503906 -15.796875 23.179688 -15.234375 22.859375 -14.421875 L 16.78125 1.21875 C 16.59375 1.738281 16.3125 1.976562 15.9375 1.9375 C 15.625 1.90625 15.425781 1.617188 15.34375 1.078125 L 13.515625 -11.859375 C 13.472656 -12.148438 13.363281 -12.304688 13.1875 -12.328125 C 13.019531 -12.359375 12.878906 -12.222656 12.765625 -11.921875 L 8.125 0.359375 C 7.945312 0.878906 7.6875 1.125 7.34375 1.09375 Z M 7.34375 1.09375 "/></g></g></g><g fill="#25754a" fill-opacity="1"><g transform="translate(112.416728, 63.005734)"><g><path d="M 4.75 0.328125 C 3.644531 0.335938 2.734375 -0.00390625 2.015625 -0.703125 C 1.296875 -1.398438 0.9375 -2.328125 0.9375 -3.484375 C 0.925781 -4.617188 1.273438 -5.695312 1.984375 -6.71875 C 2.691406 -7.75 3.660156 -8.675781 4.890625 -9.5 C 6.128906 -10.332031 7.546875 -11 9.140625 -11.5 C 9.484375 -11.613281 9.648438 -11.84375 9.640625 -12.1875 L 9.625 -15.796875 C 9.613281 -17.066406 9.40625 -17.96875 9 -18.5 C 8.601562 -19.039062 8.0625 -19.3125 7.375 -19.3125 C 6.71875 -19.300781 6.117188 -19 5.578125 -18.40625 C 5.035156 -17.8125 4.648438 -16.8125 4.421875 -15.40625 C 4.304688 -14.5625 4.03125 -13.945312 3.59375 -13.5625 C 3.15625 -13.175781 2.710938 -12.984375 2.265625 -12.984375 C 1.523438 -12.972656 1.15625 -13.335938 1.15625 -14.078125 C 1.144531 -14.835938 1.351562 -15.597656 1.78125 -16.359375 C 2.207031 -17.117188 2.773438 -17.8125 3.484375 -18.4375 C 4.203125 -19.0625 4.984375 -19.5625 5.828125 -19.9375 C 6.671875 -20.3125 7.515625 -20.5 8.359375 -20.5 C 10.972656 -20.519531 12.289062 -19.007812 12.3125 -15.96875 L 12.390625 -3.84375 C 12.390625 -2.726562 12.664062 -2.171875 13.21875 -2.171875 C 13.5625 -2.171875 13.878906 -2.398438 14.171875 -2.859375 C 14.460938 -3.328125 14.601562 -4.117188 14.59375 -5.234375 C 14.59375 -5.648438 14.765625 -5.863281 15.109375 -5.875 C 15.429688 -5.875 15.59375 -5.648438 15.59375 -5.203125 C 15.601562 -3.273438 15.269531 -1.878906 14.59375 -1.015625 C 13.925781 -0.148438 13.171875 0.28125 12.328125 0.28125 C 11.691406 0.289062 11.1875 0.0390625 10.8125 -0.46875 C 10.445312 -0.988281 10.191406 -1.609375 10.046875 -2.328125 C 10.023438 -2.585938 9.914062 -2.722656 9.71875 -2.734375 C 9.519531 -2.753906 9.328125 -2.625 9.140625 -2.34375 C 8.515625 -1.46875 7.867188 -0.800781 7.203125 -0.34375 C 6.546875 0.101562 5.726562 0.328125 4.75 0.328125 Z M 5.8125 -1.5 C 6.5 -1.507812 7.132812 -1.757812 7.71875 -2.25 C 8.300781 -2.738281 8.773438 -3.394531 9.140625 -4.21875 C 9.503906 -5.039062 9.679688 -5.96875 9.671875 -7 L 9.65625 -9.890625 C 9.65625 -10.390625 9.375 -10.53125 8.8125 -10.3125 C 7.207031 -9.71875 5.96875 -8.910156 5.09375 -7.890625 C 4.21875 -6.867188 3.78125 -5.644531 3.78125 -4.21875 C 3.789062 -2.394531 4.46875 -1.488281 5.8125 -1.5 Z M 5.8125 -1.5 "/></g></g></g></g></g><g transform="matrix(1, 0, 0, 1, 267, 217)"><g clip-path="url(#e2de8332c8)"><g fill="#25754a" fill-opacity="1"><g transform="translate(5.103297, 42.697923)"><g><path d="M 0.796875 0 C 0.472656 0 0.3125 -0.144531 0.3125 -0.4375 C 0.3125 -0.695312 0.457031 -0.851562 0.75 -0.90625 L 1.3125 -0.984375 C 1.863281 -1.066406 2.269531 -1.226562 2.53125 -1.46875 C 2.800781 -1.71875 2.9375 -2.117188 2.9375 -2.671875 L 2.875 -25.421875 C 2.875 -25.890625 2.796875 -26.210938 2.640625 -26.390625 C 2.492188 -26.578125 2.234375 -26.679688 1.859375 -26.703125 L 0.953125 -26.828125 C 0.660156 -26.878906 0.515625 -27.039062 0.515625 -27.3125 C 0.515625 -27.570312 0.660156 -27.726562 0.953125 -27.78125 C 1.691406 -27.9375 2.328125 -28.125 2.859375 -28.34375 C 3.390625 -28.5625 3.828125 -28.773438 4.171875 -28.984375 C 4.585938 -29.253906 4.90625 -29.390625 5.125 -29.390625 C 5.414062 -29.390625 5.5625 -29.175781 5.5625 -28.75 L 5.640625 -2.671875 C 5.640625 -2.117188 5.722656 -1.726562 5.890625 -1.5 C 6.066406 -1.28125 6.429688 -1.128906 6.984375 -1.046875 L 7.890625 -0.921875 C 8.179688 -0.867188 8.328125 -0.710938 8.328125 -0.453125 C 8.328125 -0.160156 8.171875 -0.015625 7.859375 -0.015625 Z M 0.796875 0 "/></g></g></g><g fill="#25754a" fill-opacity="1"><g transform="translate(20.121975, 42.557587)"><g><path d="M 4.78125 0 C 3.664062 0.0820312 2.722656 -0.195312 1.953125 -0.84375 C 1.191406 -1.5 0.769531 -2.40625 0.6875 -3.5625 C 0.601562 -4.695312 0.875 -5.796875 1.5 -6.859375 C 2.132812 -7.921875 3.039062 -8.910156 4.21875 -9.828125 C 5.40625 -10.742188 6.765625 -11.515625 8.296875 -12.140625 C 8.628906 -12.265625 8.785156 -12.5 8.765625 -12.84375 L 8.484375 -16.4375 C 8.390625 -17.707031 8.125 -18.597656 7.6875 -19.109375 C 7.25 -19.617188 6.691406 -19.847656 6.015625 -19.796875 C 5.359375 -19.742188 4.78125 -19.398438 4.28125 -18.765625 C 3.78125 -18.140625 3.46875 -17.117188 3.34375 -15.703125 C 3.269531 -14.835938 3.03125 -14.203125 2.625 -13.796875 C 2.21875 -13.390625 1.796875 -13.164062 1.359375 -13.125 C 0.617188 -13.070312 0.21875 -13.410156 0.15625 -14.140625 C 0.101562 -14.898438 0.265625 -15.671875 0.640625 -16.453125 C 1.023438 -17.242188 1.546875 -17.976562 2.203125 -18.65625 C 2.867188 -19.332031 3.609375 -19.882812 4.421875 -20.3125 C 5.234375 -20.75 6.0625 -21 6.90625 -21.0625 C 9.519531 -21.269531 10.941406 -19.859375 11.171875 -16.828125 L 12.109375 -4.703125 C 12.191406 -3.609375 12.507812 -3.082031 13.0625 -3.125 C 13.394531 -3.144531 13.6875 -3.394531 13.9375 -3.875 C 14.195312 -4.351562 14.285156 -5.144531 14.203125 -6.25 C 14.171875 -6.675781 14.328125 -6.90625 14.671875 -6.9375 C 14.992188 -6.957031 15.171875 -6.742188 15.203125 -6.296875 C 15.347656 -4.367188 15.113281 -2.945312 14.5 -2.03125 C 13.894531 -1.125 13.175781 -0.640625 12.34375 -0.578125 C 11.707031 -0.535156 11.179688 -0.753906 10.765625 -1.234375 C 10.359375 -1.722656 10.0625 -2.320312 9.875 -3.03125 C 9.832031 -3.289062 9.710938 -3.414062 9.515625 -3.40625 C 9.316406 -3.40625 9.132812 -3.269531 8.96875 -3 C 8.394531 -2.070312 7.796875 -1.359375 7.171875 -0.859375 C 6.554688 -0.359375 5.757812 -0.0703125 4.78125 0 Z M 5.703125 -1.90625 C 6.390625 -1.957031 7.003906 -2.25 7.546875 -2.78125 C 8.085938 -3.3125 8.507812 -4 8.8125 -4.84375 C 9.125 -5.6875 9.238281 -6.625 9.15625 -7.65625 L 8.9375 -10.546875 C 8.894531 -11.046875 8.609375 -11.171875 8.078125 -10.921875 C 6.515625 -10.222656 5.328125 -9.332031 4.515625 -8.25 C 3.710938 -7.164062 3.367188 -5.910156 3.484375 -4.484375 C 3.617188 -2.671875 4.359375 -1.8125 5.703125 -1.90625 Z M 5.703125 -1.90625 "/></g></g></g><g fill="#25754a" fill-opacity="1"><g transform="translate(42.3583, 40.599555)"><g><path d="M 8.125 -1.015625 C 7.050781 -0.828125 5.960938 -0.988281 4.859375 -1.5 C 4.210938 -1.800781 3.707031 -1.613281 3.34375 -0.9375 C 3.132812 -0.601562 2.972656 -0.375 2.859375 -0.25 C 2.742188 -0.132812 2.617188 -0.0664062 2.484375 -0.046875 C 2.203125 -0.00390625 2.066406 -0.175781 2.078125 -0.5625 C 2.078125 -1.175781 2.023438 -1.953125 1.921875 -2.890625 C 1.816406 -3.835938 1.628906 -5.09375 1.359375 -6.65625 L -1.828125 -25.453125 C -1.910156 -25.910156 -2.035156 -26.210938 -2.203125 -26.359375 C -2.367188 -26.515625 -2.640625 -26.585938 -3.015625 -26.578125 L -3.859375 -26.5625 C -4.148438 -26.5625 -4.316406 -26.691406 -4.359375 -26.953125 C -4.410156 -27.210938 -4.296875 -27.394531 -4.015625 -27.5 C -3.316406 -27.78125 -2.738281 -28.066406 -2.28125 -28.359375 C -1.820312 -28.648438 -1.4375 -28.925781 -1.125 -29.1875 C -0.757812 -29.519531 -0.472656 -29.707031 -0.265625 -29.75 C 0.015625 -29.789062 0.191406 -29.601562 0.265625 -29.1875 L 1.90625 -19.53125 C 1.945312 -19.3125 2.054688 -19.1875 2.234375 -19.15625 C 2.421875 -19.125 2.601562 -19.226562 2.78125 -19.46875 C 3.707031 -20.8125 4.832031 -21.597656 6.15625 -21.828125 C 7.363281 -22.035156 8.492188 -21.816406 9.546875 -21.171875 C 10.609375 -20.535156 11.53125 -19.554688 12.3125 -18.234375 C 13.09375 -16.910156 13.644531 -15.296875 13.96875 -13.390625 C 14.332031 -11.222656 14.3125 -9.25 13.90625 -7.46875 C 13.507812 -5.6875 12.8125 -4.222656 11.8125 -3.078125 C 10.8125 -1.941406 9.582031 -1.253906 8.125 -1.015625 Z M 7.875 -1.984375 C 9.332031 -2.222656 10.363281 -3.28125 10.96875 -5.15625 C 11.582031 -7.039062 11.644531 -9.441406 11.15625 -12.359375 C 10.695312 -15.046875 9.953125 -17.023438 8.921875 -18.296875 C 7.898438 -19.566406 6.675781 -20.082031 5.25 -19.84375 C 4.363281 -19.6875 3.65625 -19.1875 3.125 -18.34375 C 2.59375 -17.507812 2.4375 -16.441406 2.65625 -15.140625 L 4.328125 -5.28125 C 4.523438 -4.113281 4.945312 -3.234375 5.59375 -2.640625 C 6.25 -2.054688 7.007812 -1.835938 7.875 -1.984375 Z M 7.875 -1.984375 "/></g></g></g></g></g><g clip-path="url(#7d06a73e6b)"><path fill="#f6d636" d="M 267.371094 143.53125 C 267.75 143.28125 268.199219 143.21875 268.625 143.109375 C 269.460938 142.886719 270.328125 142.789062 271.148438 142.5 C 272.433594 142.054688 273.746094 141.660156 274.976562 141.085938 C 276.347656 140.460938 277.65625 139.726562 278.902344 138.882812 C 279.457031 138.511719 279.976562 138.097656 280.464844 137.644531 C 281.386719 136.773438 282.15625 135.78125 282.765625 134.671875 C 283.402344 133.5 283.777344 132.238281 284.191406 130.988281 C 284.660156 129.527344 285.050781 128.042969 285.367188 126.539062 C 285.472656 126.050781 285.511719 125.546875 285.59375 125.050781 C 285.636719 124.855469 285.738281 124.695312 285.894531 124.570312 C 286.003906 124.476562 286.121094 124.542969 286.199219 124.726562 C 286.414062 125.199219 286.585938 125.691406 286.714844 126.195312 C 287.085938 127.519531 287.503906 128.828125 287.976562 130.117188 C 288.351562 131.078125 288.789062 132.007812 289.292969 132.90625 C 289.5625 133.40625 291.21875 136.242188 291.570312 136.671875 C 292.425781 137.746094 293.472656 138.585938 294.710938 139.195312 C 295.339844 139.492188 295.988281 139.734375 296.664062 139.910156 C 297.5625 140.160156 298.464844 140.484375 299.367188 140.746094 C 300.507812 141.089844 301.667969 141.34375 302.847656 141.519531 C 303.449219 141.621094 304.039062 141.761719 304.621094 141.941406 C 304.78125 141.988281 304.8125 142.105469 304.703125 142.234375 C 304.617188 142.320312 304.511719 142.382812 304.394531 142.417969 C 303.976562 142.570312 303.550781 142.691406 303.117188 142.789062 C 301.929688 143.101562 300.773438 143.507812 299.652344 144 C 298.101562 144.652344 296.667969 145.5 295.355469 146.546875 C 294.902344 146.910156 294.417969 147.253906 293.945312 147.605469 C 293.25 148.125 292.734375 148.804688 292.210938 149.488281 C 290.183594 152.027344 287.972656 160.132812 287.839844 160.792969 C 287.828125 160.863281 287.804688 160.929688 287.777344 160.996094 C 287.738281 161.085938 287.707031 161.21875 287.601562 161.21875 C 287.480469 161.195312 287.398438 161.125 287.351562 161.015625 C 286.609375 159.566406 285.800781 158.148438 284.953125 156.769531 C 284.167969 155.496094 283.425781 154.203125 282.582031 152.96875 C 281.835938 151.847656 281.03125 150.777344 280.164062 149.75 C 278.957031 148.351562 277.519531 147.257812 275.851562 146.46875 C 274.714844 145.925781 273.539062 145.484375 272.324219 145.148438 C 271.289062 144.871094 270.261719 144.515625 269.21875 144.226562 C 268.734375 144.09375 268.261719 143.882812 267.738281 143.894531 C 267.59375 143.902344 267.480469 143.777344 267.371094 143.691406 Z M 267.371094 143.53125 " fill-opacity="1" fill-rule="nonzero"/></g><g clip-path="url(#901a3c90df)"><path fill="#f6d636" d="M 62.207031 256.804688 C 62.726562 256.464844 63.335938 256.378906 63.917969 256.230469 C 65.050781 255.925781 66.230469 255.792969 67.347656 255.398438 C 69.09375 254.789062 70.878906 254.25 72.554688 253.464844 C 74.417969 252.609375 76.195312 251.605469 77.890625 250.449219 C 78.644531 249.941406 79.351562 249.378906 80.015625 248.757812 C 81.269531 247.566406 82.3125 246.210938 83.144531 244.695312 C 84.007812 243.089844 84.519531 241.367188 85.082031 239.65625 C 85.71875 237.65625 86.253906 235.628906 86.683594 233.574219 C 86.828125 232.90625 86.878906 232.214844 86.988281 231.539062 C 87.046875 231.269531 87.183594 231.050781 87.398438 230.878906 C 87.546875 230.753906 87.707031 230.84375 87.8125 231.09375 C 88.105469 231.742188 88.339844 232.414062 88.515625 233.105469 C 89.015625 234.914062 89.585938 236.703125 90.234375 238.464844 C 90.738281 239.777344 91.335938 241.046875 92.019531 242.277344 C 92.386719 242.964844 94.640625 246.839844 95.117188 247.425781 C 96.28125 248.898438 97.707031 250.046875 99.386719 250.878906 C 100.242188 251.285156 101.128906 251.613281 102.042969 251.855469 C 103.269531 252.199219 104.492188 252.640625 105.71875 253 C 107.269531 253.464844 108.847656 253.816406 110.453125 254.054688 C 111.269531 254.195312 112.074219 254.390625 112.863281 254.632812 C 113.085938 254.699219 113.125 254.859375 112.976562 255.035156 C 112.859375 255.152344 112.71875 255.234375 112.554688 255.28125 C 111.988281 255.492188 111.410156 255.660156 110.816406 255.789062 C 109.203125 256.21875 107.632812 256.773438 106.109375 257.449219 C 103.996094 258.339844 102.050781 259.5 100.261719 260.929688 C 99.652344 261.429688 98.988281 261.898438 98.347656 262.378906 C 97.398438 263.089844 96.703125 264.019531 95.988281 264.953125 C 93.230469 268.421875 90.226562 279.507812 90.046875 280.410156 C 90.027344 280.507812 89.996094 280.597656 89.960938 280.6875 C 89.90625 280.8125 89.863281 280.996094 89.71875 280.996094 C 89.554688 280.957031 89.441406 280.863281 89.378906 280.714844 C 88.371094 278.734375 87.273438 276.792969 86.117188 274.90625 C 85.054688 273.167969 84.039062 271.398438 82.894531 269.710938 C 81.878906 268.179688 80.785156 266.714844 79.605469 265.308594 C 77.964844 263.398438 76.011719 261.902344 73.738281 260.820312 C 72.195312 260.078125 70.597656 259.480469 68.945312 259.019531 C 67.535156 258.640625 66.140625 258.152344 64.722656 257.757812 C 64.0625 257.574219 63.421875 257.289062 62.707031 257.304688 C 62.511719 257.3125 62.359375 257.144531 62.207031 257.023438 Z M 62.207031 256.804688 " fill-opacity="1" fill-rule="nonzero"/></g></svg>